<?xml version="1.0" standalone="no"?>
<!DOCTYPE svg PUBLIC "-//W3C//DTD SVG 20010904//EN"
 "http://www.w3.org/TR/2001/REC-SVG-20010904/DTD/svg10.dtd">
<svg version="1.0" xmlns="http://www.w3.org/2000/svg"
 width="305.000000pt" height="305.000000pt" viewBox="0 0 305.000000 305.000000"
 preserveAspectRatio="xMidYMid meet">
<metadata>
Created by potrace 1.11, written by Peter Selinger 2001-2013
</metadata>
<g transform="translate(0.000000,305.000000) scale(0.100000,-0.100000)"
fill="#000000" stroke="none">
<path d="M0 2556 l0 -494 29 -31 29 -31 7 37 c4 21 11 46 17 56 14 27 94 60
129 53 26 -5 29 -3 29 19 0 33 45 55 114 55 61 0 69 -9 64 -74 -1 -19 1 -38 4
-41 3 -4 27 -3 52 0 46 7 46 8 46 46 0 33 4 40 26 45 14 4 42 4 62 1 32 -5 35
-4 19 7 -16 12 -16 14 -1 20 23 9 31 7 14 -4 -13 -8 -12 -10 3 -10 13 0 16 6
12 23 -9 42 -30 97 -37 97 -3 0 -4 9 -1 20 6 23 8 24 34 10 13 -8 19 -7 19 0
0 6 4 9 8 6 10 -6 7 -120 -4 -137 -5 -9 -2 -10 10 -6 10 4 20 7 22 7 3 0 2 5
-2 12 -4 7 -3 8 4 4 18 -11 3 -33 -31 -43 l-32 -10 26 -13 c27 -12 57 -60 39
-60 -6 0 -10 -9 -10 -19 0 -11 -5 -21 -12 -23 -6 -2 -13 -14 -14 -26 -4 -21
-3 -21 16 -5 10 9 17 20 14 24 -5 9 46 6 86 -5 14 -3 31 -2 39 3 11 7 10 13
-4 34 -15 24 -19 94 -5 107 3 3 15 20 28 38 19 27 21 36 11 48 -7 8 -19 12
-28 9 -8 -3 -13 -3 -9 0 4 4 -7 27 -23 53 -32 50 -33 45 30 114 19 21 42 40
53 43 10 4 16 11 13 16 -4 5 4 10 17 10 20 1 21 2 3 6 -11 3 -24 10 -30 15 -7
8 -6 9 4 3 10 -6 12 -1 7 22 -6 24 -3 31 15 39 21 10 21 11 4 28 -17 16 -17
18 2 39 11 12 23 31 28 42 l7 20 8 -20 c7 -17 9 -14 9 13 1 24 6 32 19 32 15
0 15 -2 2 -11 -13 -10 -13 -10 0 -7 8 3 36 11 63 19 26 7 47 19 47 26 0 7 -5
13 -12 13 -6 0 -3 9 7 20 25 28 42 25 59 -9 18 -33 45 -47 60 -30 6 7 7 9 1 7
-5 -3 -16 0 -23 8 -10 11 -6 19 21 46 18 18 38 52 46 75 12 37 16 41 35 33 20
-7 22 -5 18 20 -2 15 1 31 7 34 35 22 -14 26 -340 26 -331 0 -351 -1 -344 -17
13 -32 26 -97 32 -160 4 -52 3 -63 -10 -63 -8 0 -20 6 -26 14 -9 11 -52 125
-78 209 -5 16 -27 17 -279 17 l-274 0 0 -494z m840 -50 c0 -3 -4 -8 -10 -11
-5 -3 -10 -1 -10 4 0 6 5 11 10 11 6 0 10 -2 10 -4z m-96 -96 c-1 -59 -10 -74
-20 -34 -5 18 -3 29 4 32 7 2 9 8 6 13 -5 9 1 39 9 39 1 0 2 -23 1 -50z m-97
-166 c-3 -3 -12 -4 -19 -1 -8 3 -5 6 6 6 11 1 17 -2 13 -5z m58 -54 c3 -5 -1
-10 -9 -10 -9 0 -16 5 -16 10 0 6 4 10 9 10 6 0 13 -4 16 -10z"/>
<path d="M1363 3035 c4 -9 2 -23 -4 -31 -6 -7 -9 -21 -7 -30 3 -17 4 -17 20 0
10 9 22 15 27 11 5 -3 12 -1 15 4 4 5 -3 12 -14 16 -11 3 -20 13 -20 20 0 8
-5 17 -12 21 -8 5 -9 2 -5 -11z"/>
<path d="M1435 3040 c3 -5 13 -10 21 -10 8 0 14 5 14 10 0 6 -9 10 -21 10 -11
0 -17 -4 -14 -10z"/>
<path d="M1580 3037 c0 -7 -8 -24 -17 -37 -20 -28 -28 -70 -15 -70 5 0 20 8
33 18 13 10 40 24 59 32 43 16 60 30 38 30 -9 0 -19 7 -22 16 -4 9 -13 14 -22
10 -8 -3 -12 -2 -9 4 3 6 -5 10 -19 10 -15 0 -26 -6 -26 -13z"/>
<path d="M1688 3043 c12 -2 32 -2 45 0 12 2 2 4 -23 4 -25 0 -35 -2 -22 -4z"/>
<path d="M1802 3034 c-29 -20 -28 -34 3 -34 13 0 34 -10 46 -22 18 -20 20 -32
16 -90 -6 -91 6 -108 78 -108 50 0 54 2 67 30 7 17 23 33 36 36 19 5 22 13 22
53 0 71 19 91 89 91 31 0 61 -4 67 -9 5 -5 26 -14 47 -21 43 -14 100 -57 91
-71 -3 -5 0 -9 5 -9 6 0 11 6 11 13 -1 17 -25 47 -38 47 -6 0 -13 4 -17 9 -3
6 3 8 13 6 25 -4 23 30 -3 49 -11 8 -16 19 -12 30 6 15 -16 16 -246 16 -212 0
-256 -2 -275 -16z"/>
<path d="M2530 3030 c-9 -17 -8 -20 8 -20 22 0 46 23 35 33 -12 13 -32 7 -43
-13z"/>
<path d="M2677 3044 c7 -3 9 -12 6 -21 -5 -12 -3 -14 7 -8 10 6 12 4 7 -8 -3
-10 -3 -17 2 -17 10 0 24 50 16 58 -3 3 -5 -3 -5 -14 -1 -18 -1 -18 -11 -1 -5
9 -15 17 -22 16 -9 0 -9 -2 0 -5z"/>
<path d="M2740 3039 c0 -6 11 -25 25 -43 65 -81 66 -84 72 -262 3 -90 9 -164
13 -164 8 0 4 -55 -5 -69 -5 -10 1 -13 22 -10 3 0 10 -6 15 -15 5 -9 19 -16
31 -16 38 0 51 -16 52 -63 1 -38 6 -48 43 -81 l42 -38 0 386 0 386 -155 0
c-107 0 -155 -3 -155 -11z"/>
<path d="M1390 3032 c0 -12 19 -26 26 -19 2 2 -2 10 -11 17 -9 8 -15 8 -15 2z"/>
<path d="M2604 3017 c-3 -9 -12 -17 -20 -17 -8 0 -14 -4 -14 -8 0 -4 -15 -8
-32 -7 -33 0 -33 0 -33 -48 0 -70 21 -86 104 -79 l64 5 -7 59 c-3 33 -13 69
-21 81 -8 12 -15 17 -15 12 0 -6 -4 -3 -10 5 -8 12 -10 12 -16 -3z"/>
<path d="M1728 3003 c7 -3 16 -2 19 1 4 3 -2 6 -13 5 -11 0 -14 -3 -6 -6z"/>
<path d="M1385 2930 c-9 -18 -14 -34 -11 -37 3 -3 -1 -15 -9 -27 -8 -11 -15
-25 -15 -31 0 -5 5 -3 11 5 8 12 10 10 5 -9 -7 -34 10 -61 39 -61 14 0 25 4
25 9 0 5 9 11 20 14 15 4 20 14 20 39 0 18 3 42 6 54 6 24 -21 59 -53 69 -18
5 -25 0 -38 -25z"/>
<path d="M1757 2953 c-4 -3 -29 -7 -57 -9 -32 -1 -59 -10 -76 -23 -15 -12 -22
-21 -16 -21 5 0 8 -9 5 -20 -3 -12 0 -20 8 -20 7 0 9 -3 6 -6 -3 -4 2 -18 13
-31 10 -14 16 -31 13 -40 -5 -12 -2 -15 10 -10 11 4 14 2 10 -9 -3 -7 -10 -14
-16 -14 -6 0 -7 -3 -3 -7 4 -4 24 -6 45 -4 21 1 55 -4 75 -13 20 -8 36 -12 36
-9 0 3 8 -1 17 -8 9 -8 14 -9 10 -2 -4 7 0 14 11 17 10 3 18 15 18 25 0 11 -3
18 -7 15 -9 -5 -39 42 -32 50 12 12 12 101 0 117 -13 17 -60 32 -70 22z"/>
<path d="M2117 2953 c-4 -3 -7 -24 -7 -45 0 -21 -5 -38 -11 -38 -8 0 -9 -4 0
-13 6 -8 9 -16 6 -19 -2 -2 -7 -20 -10 -40 -6 -39 1 -44 90 -67 62 -17 73 -14
80 19 4 16 16 36 27 44 11 8 17 19 13 25 -3 6 0 11 8 11 10 0 14 9 13 30 -1
16 -4 31 -7 32 -2 2 -18 13 -34 24 -41 29 -152 53 -168 37z"/>
<path d="M1310 2926 c0 -14 4 -27 8 -30 5 -3 6 8 4 25 -5 35 -12 38 -12 5z"/>
<path d="M2710 2929 c0 -5 5 -7 10 -4 6 3 10 8 10 11 0 2 -4 4 -10 4 -5 0 -10
-5 -10 -11z"/>
<path d="M1528 2899 c-35 -26 -36 -57 -2 -115 21 -35 31 -44 54 -44 49 0 54
20 20 86 -16 32 -30 67 -30 77 0 22 -9 21 -42 -4z"/>
<path d="M1302 2829 c-9 -34 -5 -42 44 -108 2 -2 15 -1 29 3 26 7 35 26 12 26
-20 0 -57 43 -57 66 0 10 -4 25 -9 33 -7 11 -12 6 -19 -20z"/>
<path d="M2353 2833 c-4 -10 -12 -22 -20 -26 -7 -4 -13 -15 -13 -22 0 -8 -4
-15 -9 -15 -5 0 -13 -9 -16 -20 -10 -32 31 -88 89 -121 12 -7 16 -7 12 -1 -11
17 -14 72 -5 78 18 11 8 25 -13 18 -20 -6 -21 -5 -6 10 9 9 20 16 25 16 4 0 8
10 8 23 0 19 -5 23 -25 20 -17 -2 -20 -1 -9 4 12 6 14 14 8 31 -10 27 -17 28
-26 5z"/>
<path d="M2035 2815 c-29 -28 -29 -40 -1 -29 18 7 41 43 32 51 -2 3 -17 -7
-31 -22z"/>
<path d="M2565 2807 c-4 -12 -1 -35 4 -50 9 -23 16 -27 49 -27 32 0 41 5 50
25 7 14 12 37 12 50 0 24 -3 25 -55 25 -49 0 -55 -3 -60 -23z"/>
<path d="M1130 2782 c0 -12 19 -26 26 -19 2 2 -2 10 -11 17 -9 8 -15 8 -15 2z"/>
<path d="M1200 2773 c-14 -9 -34 -25 -46 -35 -11 -10 -24 -15 -28 -11 -4 4 -4
-1 0 -12 7 -20 7 -20 -14 -1 -12 11 -22 14 -22 9 0 -6 7 -17 16 -24 14 -11 19
-10 33 7 9 11 36 35 60 52 45 33 46 44 1 15z"/>
<path d="M1215 2727 c-41 -30 -72 -66 -86 -99 -9 -22 -8 -31 8 -52 12 -17 24
-23 37 -20 11 4 16 2 12 -4 -5 -9 6 -15 84 -40 32 -11 37 -10 70 17 19 16 34
34 33 40 -2 6 1 11 5 11 20 0 6 34 -29 69 -20 22 -40 50 -44 62 -14 45 -44 50
-90 16z"/>
<path d="M1494 2718 c6 -15 16 -28 23 -28 18 0 16 29 -2 36 -8 4 -13 9 -10 13
2 4 -2 8 -9 8 -10 0 -11 -7 -2 -29z"/>
<path d="M1051 2695 c0 -5 3 -16 8 -23 6 -10 10 -10 21 3 7 8 10 19 6 22 -4 4
-11 1 -15 -6 -7 -11 -10 -11 -14 0 -3 8 -6 10 -6 4z"/>
<path d="M1635 2685 c-22 -10 -25 -14 -11 -14 16 -1 17 -3 5 -18 -12 -15 -12
-16 4 -10 11 4 16 3 12 -4 -4 -5 -16 -7 -27 -3 -17 5 -20 3 -15 -11 4 -9 7
-23 7 -31 0 -11 11 -6 38 14 46 37 88 45 124 24 29 -17 43 -63 32 -108 -5 -19
-4 -25 5 -20 6 4 11 14 11 22 0 8 4 14 9 14 5 0 9 20 9 45 0 36 -5 51 -26 70
-14 13 -29 22 -34 19 -4 -3 -10 1 -13 8 -7 19 -92 21 -130 3z"/>
<path d="M1395 2669 c-8 -12 14 -31 30 -26 6 2 10 10 10 18 0 17 -31 24 -40 8z"/>
<path d="M1064 2644 c-18 -15 -18 -15 2 -5 12 6 24 7 28 4 3 -3 6 -1 6 5 0 16
-12 15 -36 -4z"/>
<path d="M2530 2614 c0 -8 5 -12 10 -9 6 4 8 11 5 16 -9 14 -15 11 -15 -7z"/>
<path d="M1060 2610 c0 -5 -8 -10 -19 -10 -10 0 -24 -7 -31 -15 -15 -18 1 -20
18 -3 8 8 15 8 26 -1 17 -14 36 -7 35 12 0 9 -2 9 -6 0 -8 -21 -25 -14 -18 7
3 11 4 20 1 20 -3 0 -6 -4 -6 -10z"/>
<path d="M1700 2607 c-23 -19 -52 -107 -40 -122 6 -7 7 -21 3 -30 -5 -14 -3
-17 10 -12 8 3 17 2 19 -3 2 -4 14 -10 28 -12 22 -3 27 3 40 42 8 25 18 50 22
55 3 6 3 28 -1 50 -5 35 -10 40 -36 42 -17 2 -37 -3 -45 -10z"/>
<path d="M967 2593 c-12 -12 -7 -30 8 -30 10 0 12 4 5 12 -5 7 -7 15 -3 18 3
4 4 7 1 7 -2 0 -8 -3 -11 -7z"/>
<path d="M2555 2590 c3 -5 8 -10 11 -10 2 0 4 5 4 10 0 6 -5 10 -11 10 -5 0
-7 -4 -4 -10z"/>
<path d="M910 2580 c0 -5 8 -14 18 -19 14 -7 18 -6 19 8 1 10 -6 17 -18 18
-10 1 -19 -2 -19 -7z"/>
<path d="M1935 2580 c-19 -8 -19 -9 3 -9 12 -1 22 4 22 9 0 6 -1 10 -2 9 -2 0
-12 -4 -23 -9z"/>
<path d="M2005 2569 c-16 -8 -15 -8 8 -4 15 3 27 1 27 -5 0 -5 -19 -10 -42
-10 -33 0 -39 -3 -28 -11 12 -8 8 -10 -15 -8 -47 2 -55 0 -55 -15 0 -8 12 -17
28 -19 21 -3 19 -4 -11 -6 -23 0 -36 -5 -32 -11 4 -6 3 -9 -2 -8 -4 1 -32 -13
-62 -32 l-53 -33 63 -17 c35 -10 92 -26 127 -35 61 -18 63 -18 81 1 15 15 52
113 55 146 1 4 9 17 19 28 21 25 13 43 -15 34 -11 -3 -18 -2 -15 2 7 12 -53
14 -78 3z m105 -24 c-7 -8 -17 -15 -22 -15 -11 0 14 29 26 30 5 0 3 -7 -4 -15z
m-60 -10 c-14 -8 -34 -14 -45 -14 -13 0 -7 5 15 13 47 18 61 18 30 1z m-60
-45 c-8 -5 -19 -10 -25 -10 -5 0 -3 5 5 10 8 5 20 10 25 10 6 0 3 -5 -5 -10z"/>
<path d="M2140 2570 c0 -5 5 -10 11 -10 5 0 7 5 4 10 -3 6 -8 10 -11 10 -2 0
-4 -4 -4 -10z"/>
<path d="M2170 2559 c0 -5 11 -9 25 -9 14 0 25 2 25 4 0 2 -11 6 -25 8 -14 3
-25 1 -25 -3z"/>
<path d="M2546 2551 c12 -5 35 -26 53 -47 18 -23 31 -32 32 -24 0 8 2 23 4 32
2 9 -4 23 -13 30 -13 11 -14 11 -7 -2 7 -13 6 -13 -11 0 -10 9 -32 17 -49 18
-26 2 -27 1 -9 -7z"/>
<path d="M1001 2543 c-22 -4 -89 -43 -117 -68 -7 -5 -24 -19 -38 -29 -37 -27
-35 -71 5 -112 l32 -33 63 44 c35 24 77 46 94 50 41 9 81 -13 105 -58 11 -20
26 -37 33 -37 18 0 15 17 -5 29 -10 6 -14 11 -10 11 5 0 -1 13 -12 29 -12 16
-21 37 -21 48 0 21 -20 78 -38 111 -13 22 -34 26 -91 15z"/>
<path d="M2125 2504 c-20 -32 -45 -99 -52 -140 -4 -30 -2 -32 44 -44 26 -7 65
-22 86 -34 24 -13 41 -17 45 -10 4 5 21 20 39 32 28 20 31 27 28 63 -6 61 -38
106 -92 128 -18 7 -33 17 -33 22 0 20 -49 8 -65 -17z"/>
<path d="M1158 2503 c7 -3 16 -2 19 1 4 3 -2 6 -13 5 -11 0 -14 -3 -6 -6z"/>
<path d="M2486 2497 c-10 -8 -20 -25 -21 -39 -3 -29 -23 -94 -36 -120 -10 -20
0 -24 19 -8 7 5 6 2 -2 -7 -14 -15 -12 -18 11 -30 38 -20 68 -16 102 13 23 19
29 32 26 47 -3 12 -7 35 -9 50 -2 16 -11 38 -22 50 -10 12 -17 30 -16 40 4 21
-26 23 -52 4z"/>
<path d="M1130 2485 c0 -9 6 -12 15 -9 8 4 15 7 15 9 0 2 -7 5 -15 9 -9 3 -15
0 -15 -9z"/>
<path d="M1534 2483 c0 -10 -4 -18 -11 -18 -14 0 -57 -44 -50 -52 3 -2 35 -2
71 2 56 6 66 10 66 27 0 23 -39 21 -64 -5 -27 -27 -30 -20 -7 16 11 19 18 37
14 40 -12 12 -21 7 -19 -10z"/>
<path d="M1585 2489 c-4 -6 -5 -12 -2 -15 2 -3 7 2 10 11 7 17 1 20 -8 4z"/>
<path d="M2640 2470 c-7 -17 -10 -34 -6 -37 12 -13 41 14 41 37 0 35 -21 35
-35 0z"/>
<path d="M1209 2483 c-1 -5 -1 -17 0 -28 2 -17 0 -17 -8 -5 -8 11 -11 11 -11
2 0 -7 6 -15 13 -18 8 -3 14 -19 15 -36 1 -43 11 -49 62 -36 55 13 68 24 52
40 -7 7 -12 20 -12 30 0 10 -10 20 -25 24 -14 3 -22 11 -19 16 4 6 -2 7 -17 3
-37 -11 -44 -11 -41 3 1 6 0 12 -3 12 -3 0 -6 -3 -6 -7z"/>
<path d="M2705 2429 c-83 -67 -80 -60 -60 -120 10 -30 25 -61 34 -70 14 -14
19 -13 53 3 20 10 52 18 71 18 19 0 40 7 47 15 10 12 10 15 -1 15 -12 0 -12 2
0 9 31 20 -43 172 -83 171 -6 -1 -33 -19 -61 -41z"/>
<path d="M2840 2450 c13 -23 26 -26 33 -6 3 8 -1 17 -9 20 -28 11 -35 7 -24
-14z"/>
<path d="M1145 2429 c8 -38 16 -59 25 -59 5 0 7 12 5 28 -2 15 -4 30 -4 33 -1
4 -7 9 -15 12 -10 4 -13 0 -11 -14z"/>
<path d="M2350 2408 c0 -16 5 -28 10 -28 13 0 13 20 0 40 -8 12 -10 9 -10 -12z"/>
<path d="M2881 2407 c-9 -12 -10 -25 -1 -57 11 -40 12 -41 33 -27 12 8 23 26
25 41 3 23 -1 28 -25 25 -4 0 -10 7 -13 16 -5 15 -7 15 -19 2z"/>
<path d="M1064 2372 c3 -5 -10 -13 -29 -16 -23 -5 -49 -22 -76 -51 -23 -25
-48 -45 -56 -45 -7 0 -13 -4 -13 -9 0 -5 -10 -12 -22 -15 l-23 -7 25 -10 25
-10 -27 -15 c-21 -11 -28 -22 -28 -44 0 -37 25 -60 88 -81 60 -20 78 -51 62
-109 -6 -23 -18 -44 -26 -47 -7 -3 -14 -16 -14 -29 0 -30 -16 -31 -31 -3 -6
12 -14 17 -18 12 -3 -5 -14 -13 -25 -16 -14 -5 -16 -11 -8 -20 6 -7 9 -23 5
-35 -6 -24 -23 -30 -23 -9 0 18 -42 14 -71 -6 -13 -10 -41 -20 -61 -23 -20 -4
-39 -13 -42 -20 -3 -8 -10 -14 -16 -14 -6 0 -9 4 -6 8 3 5 -11 16 -30 25 -19
10 -43 30 -52 47 -25 44 -51 46 -89 5 -21 -23 -31 -44 -31 -63 1 -16 -3 -35
-7 -42 -9 -14 -23 -68 -31 -121 -6 -41 6 -56 51 -62 39 -5 83 10 96 34 11 22
34 15 25 -7 -3 -8 -1 -14 5 -14 6 0 7 -4 4 -10 -3 -5 3 -10 14 -10 12 0 21 -7
21 -15 0 -8 4 -15 10 -15 5 0 9 5 7 11 -1 6 3 13 8 15 15 5 41 -14 32 -23 -5
-4 -12 -1 -17 7 -7 11 -10 7 -10 -16 0 -36 24 -52 39 -26 9 15 11 14 12 -8 l1
-25 8 25 c5 16 8 19 9 8 1 -9 7 -21 14 -25 8 -4 16 -16 20 -26 6 -16 53 -42
70 -39 4 1 7 -3 7 -8 0 -6 7 -10 16 -10 8 0 12 -4 9 -10 -3 -5 1 -10 10 -10
26 0 76 -33 71 -47 -3 -6 3 -22 13 -35 31 -40 50 -157 36 -227 -6 -29 -3 -38
17 -54 15 -12 17 -17 6 -13 -13 4 -15 1 -11 -11 6 -15 4 -15 -17 0 -38 26 -43
20 -10 -12 33 -31 38 -44 15 -35 -15 6 -22 -11 -7 -19 4 -2 1 -2 -5 -1 -7 2
-13 -3 -13 -11 0 -8 4 -15 10 -15 5 0 7 -7 3 -16 -4 -10 1 -17 15 -20 13 -4
21 -17 25 -40 3 -18 17 -45 31 -59 14 -14 26 -32 26 -40 0 -7 18 -24 40 -36
44 -25 49 -35 23 -42 -14 -3 -11 -7 11 -16 16 -6 43 -9 59 -5 20 4 27 3 23 -5
-4 -6 -2 -11 3 -11 6 0 11 5 11 11 0 8 4 8 15 -1 8 -6 19 -9 25 -5 5 3 13 0
16 -8 7 -19 42 -28 74 -20 l25 7 -29 11 c-21 9 -24 14 -13 18 8 3 24 -3 35
-14 12 -10 28 -19 37 -19 8 0 15 -3 15 -7 0 -5 10 -9 23 -9 37 -3 118 -16 146
-24 26 -8 26 -8 -5 -9 -29 -1 -73 -31 -45 -31 6 0 11 -6 11 -13 0 -7 12 -28
27 -46 22 -27 26 -40 24 -79 -1 -26 -7 -52 -11 -57 -10 -13 -2 -85 12 -103 11
-13 128 -13 128 1 0 4 8 7 18 7 15 0 15 -2 2 -10 -11 -8 -7 -9 15 -4 32 8 58
28 48 38 -4 3 -1 6 6 6 28 0 -13 68 -49 83 -12 4 -11 6 3 6 21 1 24 41 2 41
-8 0 -19 9 -25 19 -13 25 -13 32 1 29 6 -2 20 13 31 32 10 19 29 43 40 53 21
17 20 17 -17 13 -60 -8 -95 47 -37 60 41 9 49 12 29 13 -10 1 -15 5 -12 11 3
5 -1 10 -10 10 -9 0 -13 5 -10 11 4 5 19 7 34 4 21 -4 28 -2 28 9 0 8 -4 13
-8 10 -4 -2 -10 0 -14 5 -3 6 4 15 16 21 15 8 19 9 15 1 -12 -19 5 -12 30 12
14 13 24 34 24 52 0 30 32 93 54 107 6 4 17 6 25 3 9 -4 11 0 7 10 -3 9 0 15
9 15 8 0 15 5 15 12 0 6 3 9 6 6 3 -4 14 1 24 10 39 35 50 42 67 42 10 0 26 7
36 15 11 7 27 12 38 10 10 -2 19 0 19 4 0 4 7 16 16 27 14 17 15 17 10 1 -8
-26 11 -12 44 34 17 24 30 34 33 27 2 -7 9 2 14 21 11 41 33 53 34 19 1 -21 1
-21 11 5 12 34 10 37 -29 40 -29 2 -29 3 -16 24 18 27 10 43 -22 43 -19 0 -23
-4 -19 -17 5 -15 4 -16 -5 -3 -17 24 -13 49 14 78 26 28 49 88 39 104 -3 5 -8
30 -11 56 -2 26 -9 49 -14 50 -5 2 -9 12 -9 21 0 22 -47 74 -59 67 -5 -4 -11
-1 -13 6 -3 8 -25 12 -59 12 -65 0 -142 -35 -137 -62 2 -9 -4 -25 -12 -34 -23
-25 -20 -151 4 -198 28 -54 45 -69 97 -84 43 -13 52 -13 79 1 33 16 78 10 50
-7 -82 -51 -261 14 -292 104 -16 50 -16 148 1 199 22 65 154 127 236 109 25
-5 45 -6 45 -1 0 5 5 9 10 9 6 0 10 -7 10 -15 0 -9 6 -18 14 -21 8 -3 26 -23
40 -44 14 -21 34 -41 46 -45 21 -7 28 -27 8 -22 -8 1 -14 -11 -16 -30 -2 -22
1 -33 9 -33 10 0 10 -3 1 -12 -20 -20 -15 -56 10 -60 29 -4 34 -24 8 -31 -11
-3 -18 -1 -14 4 3 5 -2 6 -10 3 -9 -3 -16 -13 -16 -20 0 -8 -8 -27 -17 -42
l-17 -27 25 21 c13 12 34 25 46 29 13 3 26 17 29 30 4 15 11 22 20 18 19 -7
30 25 16 48 -9 14 -8 19 6 22 13 4 13 5 2 6 -22 2 -43 51 -29 67 6 7 8 22 4
34 -3 11 -2 20 4 20 14 0 26 -43 13 -48 -14 -4 -4 -32 12 -32 16 0 46 -37 46
-58 1 -15 2 -15 12 2 8 14 8 24 0 37 -14 22 2 36 21 20 9 -7 16 -5 25 10 7 10
19 19 28 19 9 0 24 10 33 21 l17 21 43 -22 c24 -12 40 -17 36 -11 -4 7 8 11
34 11 31 0 41 4 46 20 4 11 11 18 16 14 11 -7 8 28 -3 36 -4 3 -8 23 -9 45 -1
22 -8 52 -16 67 -7 15 -13 39 -13 53 0 18 -6 29 -20 32 -12 3 -17 10 -13 17
10 15 13 36 5 36 -23 -1 -86 -30 -94 -44 -5 -9 -13 -16 -18 -16 -5 0 -21 -5
-37 -12 -15 -6 -32 -10 -38 -9 -41 11 -66 11 -60 1 5 -9 1 -10 -14 -5 -12 4
-21 2 -21 -4 0 -6 5 -11 11 -11 5 0 7 -4 4 -10 -3 -5 -15 -10 -26 -10 -16 0
-18 -5 -13 -25 5 -19 2 -25 -10 -25 -9 0 -16 7 -16 15 0 9 -7 29 -15 46 -13
25 -18 27 -30 16 -7 -8 -15 -22 -18 -33 -2 -10 -2 0 0 23 3 35 1 44 -17 53
-12 6 -28 9 -36 6 -8 -3 -19 4 -25 16 -10 18 -9 20 5 15 35 -14 14 21 -24 39
-22 10 -43 27 -46 37 -3 9 -14 17 -25 17 -10 0 -19 6 -19 13 0 7 -11 25 -25
40 -22 23 -23 27 -8 28 12 1 10 3 -7 8 -14 4 -24 13 -23 19 2 6 -3 9 -11 6 -7
-3 -23 6 -34 21 -14 17 -22 21 -25 13 -4 -10 -6 -10 -6 0 -1 6 -13 13 -28 13
-16 1 -21 3 -12 6 11 3 16 14 15 33 0 15 -4 26 -8 24 -5 -3 -8 2 -8 10 0 8 -9
18 -20 21 -11 3 -24 14 -29 24 -7 13 -18 16 -41 13 -23 -3 -28 -7 -19 -13 10
-6 8 -9 -8 -9 -31 0 -29 18 2 32 14 6 25 15 25 20 0 5 -13 0 -29 -11 -15 -11
-31 -17 -35 -13 -4 3 -11 0 -15 -7 -11 -17 -32 -5 -24 14 3 10 -1 15 -12 15
-9 0 -13 -4 -10 -10 5 -8 -49 -16 -78 -11 -5 1 -5 -24 -1 -56 12 -101 11 -121
-8 -160 -20 -42 -55 -76 -69 -67 -5 3 -9 0 -9 -5 0 -26 -161 -8 -178 20 -10
15 -9 17 3 13 19 -8 21 26 3 44 -18 18 -19 212 -2 219 7 2 12 13 11 24 -1 13
-6 17 -17 13 -8 -3 -23 -9 -32 -11 -10 -3 -18 -9 -18 -13 0 -12 -59 -30 -65
-20 -8 13 11 21 31 13 11 -4 15 -3 11 4 -4 6 -1 14 5 16 7 3 -2 6 -20 6 -19 1
-31 -3 -27 -9 7 -11 -39 -25 -53 -16 -5 3 -24 1 -42 -4 -23 -7 -38 -6 -47 1
-10 9 -12 5 -7 -22 4 -24 3 -30 -4 -20 -5 7 -14 11 -18 8 -5 -2 -19 -1 -32 4
l-23 9 20 21 c11 12 18 25 16 29 -2 4 0 22 5 41 7 23 6 35 -1 40 -6 3 -12 18
-12 33 -1 17 -7 24 -15 21 -7 -3 -10 -1 -7 5 3 5 -4 14 -16 20 -12 7 -19 8
-15 2z m326 -226 c0 -2 -7 -7 -16 -10 -8 -3 -12 -2 -9 4 6 10 25 14 25 6z
m-270 -26 c0 -5 -4 -10 -10 -10 -5 0 -10 5 -10 10 0 6 5 10 10 10 6 0 10 -4
10 -10z m750 6 c0 -2 -7 -6 -15 -10 -8 -3 -15 -1 -15 4 0 6 7 10 15 10 8 0 15
-2 15 -4z m60 -56 c13 -9 13 -10 0 -10 -8 0 -22 5 -30 10 -13 9 -13 10 0 10 8
0 22 -5 30 -10z m-73 -15 c0 -8 -4 -12 -9 -9 -5 3 -6 10 -3 15 9 13 12 11 12
-6z m18 -53 c-3 -3 -11 0 -18 7 -9 10 -8 11 6 5 10 -3 15 -9 12 -12z m-955
-179 c0 -5 -5 -15 -10 -23 -8 -12 -10 -11 -10 8 0 12 5 22 10 22 6 0 10 -3 10
-7z m-30 -53 c0 -5 -2 -10 -4 -10 -3 0 -8 5 -11 10 -3 6 -1 10 4 10 6 0 11 -4
11 -10z m555 -40 c3 -6 -1 -7 -9 -4 -18 7 -21 14 -7 14 6 0 13 -4 16 -10z
m895 -50 c0 -5 -5 -10 -11 -10 -5 0 -7 5 -4 10 3 6 8 10 11 10 2 0 4 -4 4 -10z
m70 -42 c0 -17 -2 -18 -15 -4 -8 8 -15 22 -15 32 0 13 3 14 15 4 8 -7 15 -21
15 -32z m64 -30 c29 -110 41 -188 29 -188 -24 1 -33 18 -24 42 5 14 7 28 5 31
-7 6 -12 34 -13 65 -1 12 -7 22 -16 22 -8 0 -15 6 -15 13 0 26 28 38 34 15z
m-94 -8 c0 -5 -4 -10 -10 -10 -5 0 -10 5 -10 10 0 6 5 10 10 10 6 0 10 -4 10
-10z m50 -41 c0 -31 -1 -32 -24 -23 -9 3 -13 10 -10 15 3 5 10 6 16 3 7 -5 9
2 6 19 -3 15 -1 24 3 21 5 -3 9 -18 9 -35z m-863 2 c47 -23 68 -46 88 -95 25
-60 20 -206 -6 -206 -6 0 -8 4 -4 10 3 5 6 43 6 84 1 85 -20 137 -71 180 -36
30 -29 28 -95 31 -65 4 -121 -23 -159 -76 -26 -38 -29 -51 -32 -133 -2 -67 1
-96 12 -110 8 -11 14 -16 14 -10 0 5 6 -2 13 -16 21 -43 72 -61 150 -55 78 6
103 16 134 54 11 14 25 23 29 19 13 -14 -67 -76 -111 -87 -64 -16 -100 -14
-155 10 -71 30 -103 82 -108 170 -4 60 0 76 26 133 22 48 41 71 70 89 62 40
132 43 199 8z m-727 -113 c0 -19 -2 -20 -10 -8 -13 19 -13 30 0 30 6 0 10 -10
10 -22z m1578 -113 c-3 -3 -13 -2 -22 1 -14 5 -15 9 -4 15 13 8 36 -6 26 -16z
m32 -5 c0 -5 -2 -10 -4 -10 -3 0 -8 5 -11 10 -3 6 -1 10 4 10 6 0 11 -4 11
-10z m-120 -260 c0 -5 -7 -10 -16 -10 -8 0 -12 5 -9 10 3 6 10 10 16 10 5 0 9
-4 9 -10z m-115 -81 c-4 -5 -18 -9 -33 -9 l-27 0 25 14 c26 13 44 11 35 -5z
m-1101 -57 c3 -5 -8 -6 -25 -4 -16 2 -29 6 -29 8 0 8 49 4 54 -4z m134 -9
c-10 -2 -28 -2 -40 0 -13 2 -5 4 17 4 22 1 32 -1 23 -4z m572 -287 c0 -3 -4
-8 -10 -11 -5 -3 -10 -1 -10 4 0 6 5 11 10 11 6 0 10 -2 10 -4z m-178 -34 c30
-12 5 -29 -34 -24 -54 6 -48 22 12 30 3 0 13 -2 22 -6z m125 -17 c0 -10 -6
-14 -14 -10 -8 3 -27 5 -41 6 -24 0 -25 1 -7 9 33 14 62 11 62 -5z m-270 -10
c40 -17 66 -20 43 -5 -13 8 -13 10 2 10 9 0 20 -4 23 -10 9 -15 -38 -22 -69
-11 -15 6 -39 11 -54 12 -24 0 -25 1 -7 9 11 5 21 9 23 9 1 1 19 -6 39 -14z
m217 -14 c6 -10 -43 -25 -52 -16 -3 3 3 5 14 5 16 0 17 2 4 10 -12 8 -11 10 7
10 12 0 24 -4 27 -9z m-81 -18 c-13 -2 -35 -2 -50 0 -16 2 -5 4 22 4 28 0 40
-2 28 -4z m57 -29 c0 -2 -7 -4 -15 -4 -8 0 -15 4 -15 10 0 5 7 7 15 4 8 -4 15
-8 15 -10z"/>
<path d="M2336 2329 c-10 -18 -33 -44 -50 -60 l-31 -27 24 -26 c13 -14 28 -23
34 -19 6 3 7 1 3 -5 -9 -16 14 -61 36 -67 30 -10 55 4 77 41 20 34 20 35 1 66
-10 17 -17 36 -14 40 3 5 -7 22 -23 37 -16 15 -27 33 -25 39 8 24 -14 11 -32
-19z"/>
<path d="M2110 2288 l-25 -11 25 -6 25 -7 -24 -6 c-12 -4 -20 -11 -17 -17 3
-5 -1 -17 -11 -26 -13 -13 -14 -18 -3 -25 7 -4 9 -13 5 -20 -4 -6 0 -31 10
-56 9 -24 14 -47 12 -51 -5 -9 26 -95 34 -93 2 1 17 -3 32 -9 40 -16 84 -14
91 4 3 8 12 15 20 15 23 0 48 56 41 89 -7 34 -58 88 -88 94 -21 4 -21 4 2 6
23 1 22 3 -15 40 -21 22 -41 38 -45 35 -5 -2 -6 5 -4 17 4 21 4 21 -16 3 -18
-16 -19 -16 -13 -1 4 11 1 17 -7 17 -11 0 -11 3 1 10 20 13 2 12 -30 -2z"/>
<path d="M1418 2273 c7 -3 16 -2 19 1 4 3 -2 6 -13 5 -11 0 -14 -3 -6 -6z"/>
<path d="M1536 2271 c-4 -5 3 -7 14 -4 23 6 26 13 6 13 -8 0 -17 -4 -20 -9z"/>
<path d="M2858 2258 c-15 -12 -48 -23 -78 -26 -59 -5 -80 -27 -80 -82 0 -46 8
-56 51 -64 48 -9 75 -33 83 -76 l7 -35 -19 40 c-18 38 -54 65 -88 65 -11 0
-13 -7 -8 -27 4 -16 8 -29 9 -31 2 -2 -3 -26 -11 -54 -7 -28 -11 -55 -8 -60 3
-4 20 -9 37 -9 l32 -2 -35 -6 c-19 -3 -36 -13 -38 -21 -2 -12 10 -15 57 -15
50 0 62 -4 80 -25 19 -22 21 -33 16 -92 -5 -55 -3 -68 8 -68 8 0 26 -11 40
-24 l27 -25 24 22 c14 12 21 24 16 25 -16 6 -11 20 6 18 24 -2 43 32 25 43 -7
5 -10 14 -6 21 6 9 9 9 16 -1 13 -22 20 -4 9 25 -14 38 -13 56 5 56 22 0 22
222 0 240 -8 6 -14 15 -13 18 2 19 -3 32 -13 32 -8 0 -8 -5 1 -15 8 -10 9 -15
1 -15 -6 0 -13 11 -17 25 -3 14 -9 25 -13 25 -4 0 -7 10 -7 23 1 19 -5 22 -39
25 -40 4 -40 4 -15 17 20 11 21 14 7 15 -10 0 -15 5 -12 10 3 6 2 10 -3 10 -5
0 -13 9 -18 19 -9 18 -10 18 -36 -1z m112 -88 c0 -5 -4 -10 -10 -10 -5 0 -10
5 -10 10 0 6 5 10 10 10 6 0 10 -4 10 -10z m-156 -241 c-9 -10 -21 -19 -26
-19 -5 0 0 10 12 22 11 12 20 27 21 32 0 6 3 5 6 -2 3 -7 -3 -22 -13 -33z
m191 -109 c-3 -5 -10 -10 -16 -10 -5 0 -9 5 -9 10 0 6 7 10 16 10 8 0 12 -4 9
-10z m-30 -70 c3 -6 -1 -7 -9 -4 -18 7 -21 14 -7 14 6 0 13 -4 16 -10z m25
-40 c0 -5 -4 -10 -10 -10 -5 0 -10 5 -10 10 0 6 5 10 10 10 6 0 10 -4 10 -10z"/>
<path d="M1480 2260 c-9 -6 -10 -10 -3 -10 6 0 15 5 18 10 8 12 4 12 -15 0z"/>
<path d="M1542 2253 c-24 -8 -41 -20 -39 -26 2 -7 -6 -19 -17 -28 -29 -23 -50
-100 -42 -156 10 -73 57 -109 136 -105 40 3 83 95 81 174 -1 71 -41 151 -68
141 -11 -4 -14 -2 -9 5 4 7 6 12 4 11 -2 0 -22 -7 -46 -16z"/>
<path d="M1377 2243 c-3 -5 9 -9 26 -10 24 -2 28 0 17 7 -18 12 -37 13 -43 3z"/>
<path d="M1670 2221 c0 -4 11 -6 25 -3 14 2 25 6 25 8 0 2 -11 4 -25 4 -14 0
-25 -4 -25 -9z"/>
<path d="M1760 2219 c0 -5 5 -7 10 -4 6 3 10 8 10 11 0 2 -4 4 -10 4 -5 0 -10
-5 -10 -11z"/>
<path d="M2462 2160 l-68 -69 21 -38 c33 -62 79 -122 98 -128 9 -4 17 -10 17
-15 0 -5 14 -4 30 2 29 9 29 11 13 24 -16 12 -14 13 20 14 46 0 107 27 107 46
0 8 5 14 12 14 9 0 9 3 0 12 -7 7 -12 20 -12 29 0 48 -108 179 -147 179 -16 0
-46 -22 -91 -70z"/>
<path d="M323 2200 c-53 -8 -76 -26 -63 -50 5 -10 8 -31 6 -47 -2 -15 -1 -20
1 -10 2 9 9 15 14 11 5 -3 7 -10 4 -15 -7 -10 47 -12 81 -3 16 4 23 16 27 47
8 57 -12 76 -70 67z"/>
<path d="M1126 2175 c-3 -8 -1 -15 3 -15 5 0 11 7 15 15 3 8 1 15 -3 15 -5 0
-11 -7 -15 -15z"/>
<path d="M538 2158 c-7 -19 3 -58 15 -58 5 0 25 -12 44 -26 33 -25 35 -25 48
-8 37 49 27 77 -34 94 -48 13 -68 13 -73 -2z"/>
<path d="M160 2096 c-32 -13 -56 -29 -58 -39 -2 -9 0 -17 5 -17 4 0 20 -10 34
-23 21 -17 25 -27 18 -44 -7 -18 -5 -23 9 -23 20 -1 54 -25 46 -33 -3 -3 3 -3
15 0 12 3 21 1 21 -6 0 -20 3 -26 17 -36 11 -8 9 -20 -14 -65 -33 -63 -65 -89
-113 -91 -41 -2 -92 -18 -86 -28 3 -4 -2 -21 -11 -39 -14 -30 -14 -33 8 -61
32 -40 67 -52 111 -38 26 8 37 19 44 41 12 41 53 64 91 51 22 -8 30 -19 37
-53 7 -30 15 -42 27 -42 16 0 17 3 3 28 -19 36 -18 108 2 170 13 40 14 60 6
91 -6 27 -6 41 0 41 6 0 7 7 4 16 -4 10 -2 13 6 8 8 -5 9 -2 5 10 -4 10 -7 22
-7 28 0 6 -6 6 -15 -2 -13 -10 -15 -9 -15 9 0 18 -4 20 -25 15 -22 -5 -25 -3
-23 17 2 19 -5 28 -35 43 -33 15 -38 23 -34 43 3 16 -1 27 -10 30 -12 5 -12 7
-1 14 23 15 -5 8 -62 -15z m177 -162 c-3 -3 -12 -4 -19 -1 -8 3 -5 6 6 6 11 1
17 -2 13 -5z"/>
<path d="M480 2090 c-13 -8 -12 -10 3 -10 9 0 17 5 17 10 0 12 -1 12 -20 0z"/>
<path d="M493 2046 c-34 -36 -74 -102 -79 -131 -3 -16 -7 -32 -10 -37 -3 -4
-2 -13 1 -18 4 -6 21 2 42 21 44 38 80 36 152 -11 26 -16 51 -30 54 -30 11 0
37 57 37 80 0 24 -11 37 -52 64 -15 10 -25 22 -22 27 3 5 -3 6 -12 2 -11 -4
-15 -2 -11 4 8 13 -8 27 -49 40 -26 9 -33 8 -51 -11z"/>
<path d="M733 2052 c-6 -4 -13 -16 -15 -27 -2 -16 2 -20 25 -18 16 1 35 7 43
14 28 23 -20 52 -53 31z"/>
<path d="M0 1970 c0 -52 3 -60 18 -60 21 0 52 29 52 48 0 7 -4 12 -9 12 -5 0
-13 9 -16 20 -3 11 -15 25 -26 30 -18 10 -19 7 -19 -50z"/>
<path d="M82 2008 c2 -15 11 -24 26 -26 30 -4 28 12 -4 33 -25 16 -26 16 -22
-7z"/>
<path d="M930 1930 c0 -5 5 -10 10 -10 6 0 10 5 10 10 0 6 -4 10 -10 10 -5 0
-10 -4 -10 -10z"/>
<path d="M93 1878 c-57 -62 -30 -128 52 -128 30 0 75 53 75 89 0 59 -85 84
-127 39z"/>
<path d="M2552 1878 c-15 -15 -16 -38 -2 -38 6 0 10 9 10 20 0 14 5 18 17 13
11 -4 14 -3 9 5 -9 15 -19 15 -34 0z"/>
<path d="M1 1864 c0 -11 3 -14 6 -6 3 7 2 16 -1 19 -3 4 -6 -2 -5 -13z"/>
<path d="M2778 1810 c18 -11 37 -31 44 -44 15 -34 42 -44 32 -13 -3 12 -12 28
-18 36 -9 12 -8 13 4 6 13 -8 13 -7 1 9 -10 12 -16 13 -21 6 -5 -8 -9 -7 -13
4 -4 9 -18 16 -34 16 l-28 0 33 -20z"/>
<path d="M2546 1783 c9 -37 9 -36 40 -29 25 7 26 8 9 26 -10 11 -22 17 -26 14
-5 -3 -9 0 -9 5 0 6 -5 11 -10 11 -6 0 -8 -11 -4 -27z"/>
<path d="M2868 1553 c-2 -38 -3 -69 -3 -70 1 -2 17 8 35 22 19 14 30 25 25 25
-5 0 -4 5 3 12 19 19 14 45 -10 62 -39 28 -46 20 -50 -51z m62 3 c0 -2 -7 -6
-15 -10 -8 -3 -15 -1 -15 4 0 6 7 10 15 10 8 0 15 -2 15 -4z"/>
<path d="M246 1589 c2 -4 -3 -9 -11 -13 -20 -7 -19 -40 1 -71 14 -22 14 -27 1
-54 -16 -32 -9 -41 35 -41 33 0 76 -52 83 -101 l7 -44 68 -1 c64 -1 68 0 67
20 0 12 -6 24 -11 28 -7 5 -7 11 1 19 6 6 9 18 6 27 -5 11 -3 13 7 7 9 -5 11
-4 6 3 -4 7 -15 12 -25 12 -33 0 -97 34 -139 74 -39 37 -41 41 -35 87 3 27 2
50 -3 50 -33 5 -62 4 -58 -2z"/>
<path d="M12 1581 c-10 -6 -13 -34 -11 -110 1 -56 6 -104 9 -106 4 -3 14 3 23
13 21 24 71 116 58 108 -11 -7 -53 29 -44 38 3 3 0 13 -8 23 -11 13 -11 15 -1
9 11 -7 12 -4 3 13 -13 24 -12 23 -29 12z"/>
<path d="M139 1529 c-27 -27 -20 -32 22 -18 44 15 47 18 29 29 -21 14 -28 12
-51 -11z"/>
<path d="M2984 1519 c-28 -30 -28 -31 -10 -45 11 -8 17 -14 13 -14 -4 0 2 -9
13 -20 25 -25 26 -53 3 -76 -19 -19 -90 -53 -111 -54 -22 0 -43 28 -49 64 -3
19 -12 37 -20 41 -11 4 -13 1 -8 -12 13 -30 18 -151 7 -181 -9 -26 -8 -31 14
-41 35 -15 44 -49 34 -118 -21 -133 -79 -233 -137 -233 -29 0 -75 23 -123 61
-42 33 -80 30 -111 -9 l-20 -26 47 -17 c70 -27 94 -54 94 -106 0 -51 -31 -106
-85 -150 -33 -27 -35 -32 -25 -58 17 -44 3 -82 -53 -139 -57 -58 -127 -91
-177 -84 -16 3 -30 1 -30 -4 0 -5 -11 -20 -25 -34 l-24 -24 -45 21 c-42 21
-76 21 -76 0 0 -5 13 -12 29 -16 16 -3 35 -13 42 -21 26 -32 -20 -132 -71
-151 -26 -10 -70 -1 -70 14 0 4 -9 19 -19 32 l-19 24 -43 -35 c-24 -20 -63
-45 -87 -57 -86 -44 -67 -46 437 -49 458 -2 472 -2 466 17 -10 33 -9 90 3 104
14 16 12 67 -2 67 -5 0 -1 7 10 15 19 14 19 14 -1 15 -15 0 -17 2 -7 9 11 7
11 9 -1 14 -11 4 -13 17 -10 49 6 66 10 71 43 66 19 -3 27 -1 22 6 -4 6 -8 22
-8 36 -3 39 -3 42 -13 36 -5 -3 -4 12 1 34 7 26 22 48 43 65 37 27 50 32 39
13 -5 -9 -2 -9 9 1 21 17 21 18 0 18 -10 0 -25 -6 -35 -14 -11 -10 -18 -11
-23 -4 -3 6 -2 11 4 11 6 0 19 19 30 43 20 44 23 54 70 212 72 242 85 281 97
300 22 35 34 134 33 274 0 75 -3 130 -6 123 -2 -7 -14 -17 -26 -23 -20 -11
-20 -11 1 16 42 53 14 64 -34 14z"/>
<path d="M80 1532 c0 -12 19 -26 26 -19 2 2 -2 10 -11 17 -9 8 -15 8 -15 2z"/>
<path d="M545 1510 c-11 -5 -16 -9 -11 -9 5 -1 3 -8 -4 -16 -10 -12 -10 -15 3
-15 19 0 30 -27 14 -34 -7 -3 -3 -5 8 -3 16 2 21 11 23 45 3 44 0 46 -33 32z"/>
<path d="M2892 1475 c-52 -23 -64 -38 -46 -63 8 -12 13 -25 12 -29 -1 -4 1
-18 6 -30 10 -29 39 -29 91 0 43 24 54 47 32 68 -7 8 -21 26 -31 42 -21 31
-20 31 -64 12z"/>
<path d="M2638 1443 c7 -3 16 -2 19 1 4 3 -2 6 -13 5 -11 0 -14 -3 -6 -6z"/>
<path d="M548 1391 c-9 -10 -19 -33 -23 -51 l-7 -32 26 17 c20 13 25 25 24 51
-1 19 -2 34 -2 34 -1 0 -9 -9 -18 -19z"/>
<path d="M2707 1402 c-40 -5 -72 -24 -75 -47 -10 -73 -9 -93 4 -121 17 -35 39
-42 117 -36 41 4 48 7 54 31 14 49 9 122 -8 134 -9 7 -14 18 -12 25 3 6 1 12
-4 13 -36 4 -52 4 -76 1z"/>
<path d="M204 1381 c-30 -13 -54 -55 -54 -96 0 -29 6 -39 33 -55 42 -26 66
-25 108 3 29 19 34 29 37 68 2 34 -2 49 -16 62 -23 21 -79 30 -108 18z"/>
<path d="M76 1295 c-15 -8 -36 -15 -45 -16 -9 -1 2 -7 24 -14 29 -10 34 -14
17 -14 -13 -1 -20 -5 -17 -11 4 -6 -7 -10 -25 -10 -30 0 -32 -2 -25 -27 4 -16
7 -32 6 -38 0 -5 -4 -94 -7 -197 l-7 -186 49 23 c27 14 55 25 62 25 28 0 80
-32 92 -58 15 -31 22 -94 12 -102 -4 -3 -16 -18 -26 -33 -21 -34 -31 -30 -16
7 13 36 2 100 -22 125 -23 25 -76 28 -118 6 -24 -13 -30 -22 -30 -50 0 -37 11
-70 34 -98 11 -14 28 -19 67 -19 49 1 51 0 30 -14 -27 -19 -27 -37 -1 -29 29
9 25 -4 -5 -15 -36 -14 -31 -26 13 -27 27 0 32 1 17 7 -19 7 -19 8 -2 15 10 4
23 3 29 -3 6 -6 17 -8 26 -5 12 5 14 1 10 -15 -5 -19 -3 -21 18 -16 16 4 24 2
24 -7 0 -11 2 -11 10 1 8 13 11 13 26 -1 12 -13 22 -15 47 -7 32 10 32 10 29
72 -3 54 0 67 20 90 43 50 139 44 152 -9 9 -34 44 -73 54 -59 10 15 40 25 47
14 6 -10 36 -2 48 14 6 7 7 4 3 -6 -7 -24 30 -24 56 -1 21 19 27 16 30 -20 3
-35 15 -34 61 4 49 40 51 88 4 80 -13 -2 -34 23 -34 40 0 25 -43 90 -55 83 -7
-4 -8 -2 -4 5 4 6 2 18 -4 26 -14 17 -40 20 -40 4 0 -5 5 -7 12 -3 7 5 8 3 3
-5 -5 -9 -10 -10 -18 -2 -6 6 -27 11 -46 12 l-36 0 48 15 c26 8 47 19 47 24 0
4 -15 28 -33 52 -38 49 -71 59 -107 30 -27 -22 -21 -53 18 -89 14 -12 20 -23
14 -23 -17 0 -72 50 -72 66 0 17 -8 17 -40 -1 -41 -24 -88 -19 -119 13 -33 32
-81 168 -81 227 l0 41 -53 0 c-61 0 -92 23 -113 83 -14 42 -21 45 -58 26z
m-39 -91 c-3 -3 -12 -4 -19 -1 -8 3 -5 6 6 6 11 1 17 -2 13 -5z m308 -684 c3
-6 -4 -10 -17 -10 -18 0 -20 2 -8 10 19 12 18 12 25 0z"/>
<path d="M545 1300 c-3 -5 -2 -10 4 -10 5 0 13 5 16 10 3 6 2 10 -4 10 -5 0
-13 -4 -16 -10z"/>
<path d="M660 1285 c0 -15 -6 -33 -14 -41 -20 -20 -31 -97 -17 -122 6 -11 8
-28 4 -38 -4 -12 -3 -15 5 -10 8 5 10 2 6 -9 -4 -9 4 -25 20 -40 14 -13 26
-28 26 -32 0 -18 40 -34 60 -23 25 14 28 13 26 -7 -1 -23 6 -25 50 -17 51 9
93 75 89 140 -2 35 0 44 11 40 19 -7 18 8 -1 24 -9 7 -13 21 -9 35 3 13 1 26
-5 30 -6 3 -8 11 -5 17 5 7 2 8 -5 3 -8 -4 -23 3 -39 18 -39 36 -59 44 -134
51 l-68 7 0 -26z m-23 -147 c-3 -7 -5 -2 -5 12 0 14 2 19 5 13 2 -7 2 -19 0
-25z"/>
<path d="M2430 1280 c0 -5 5 -10 11 -10 5 0 7 5 4 10 -3 6 -8 10 -11 10 -2 0
-4 -4 -4 -10z"/>
<path d="M570 1243 c0 -7 -7 -13 -15 -13 -8 0 -15 -4 -15 -10 0 -5 -9 -10 -20
-10 -11 0 -20 -5 -20 -10 0 -6 -11 -3 -25 6 -30 19 -101 26 -114 10 -8 -9 -9
-89 -1 -106 1 -3 2 -13 1 -22 -1 -10 2 -18 6 -18 5 0 10 -13 11 -29 1 -16 9
-42 17 -57 7 -15 12 -31 9 -36 -3 -4 7 -13 21 -18 34 -13 38 -13 29 2 -5 8 -2
9 9 5 9 -3 19 -2 22 4 4 5 10 7 15 4 5 -3 15 3 22 13 16 23 55 45 67 37 19
-11 21 34 5 75 -16 40 -15 129 1 172 4 9 0 15 -10 15 -8 0 -15 -6 -15 -14z
m-55 -263 c-3 -5 -11 -10 -16 -10 -6 0 -7 5 -4 10 3 6 11 10 16 10 6 0 7 -4 4
-10z"/>
<path d="M2390 1230 c-13 -8 -12 -12 4 -27 18 -17 18 -17 13 -1 -4 10 -3 17 1
15 4 -1 8 2 10 8 5 14 -10 16 -28 5z"/>
<path d="M2425 1200 c3 -5 8 -10 11 -10 2 0 4 5 4 10 0 6 -5 10 -11 10 -5 0
-7 -4 -4 -10z"/>
<path d="M2363 1161 c-10 -28 -10 -30 16 -27 14 1 32 -2 39 -7 8 -6 12 -6 12
2 0 6 12 11 28 11 l27 1 -25 14 c-14 8 -37 14 -52 15 -14 0 -28 5 -30 10 -2 6
-8 -3 -15 -19z"/>
<path d="M2581 1151 c-16 -15 -33 -41 -36 -57 -3 -16 -10 -46 -14 -66 -5 -20
-6 -48 -4 -62 5 -26 23 -32 75 -27 9 1 19 -3 22 -8 4 -6 14 -8 24 -5 16 5 16
5 0 -9 -19 -15 -25 -33 -9 -22 5 3 13 0 16 -6 4 -5 13 -8 21 -5 8 3 11 0 8 -8
-4 -10 2 -12 22 -8 19 3 25 1 20 -7 -11 -18 -2 -13 31 17 23 20 36 45 48 92 9
35 21 72 26 82 5 10 5 27 -1 42 -8 23 -16 26 -57 27 -47 1 -47 1 -14 9 19 5
43 6 55 4 11 -2 16 0 10 5 -5 5 -40 11 -77 14 -38 2 -63 1 -56 -3 7 -5 2 -7
-14 -7 -14 1 -23 5 -21 8 2 3 -7 11 -21 17 -21 10 -28 7 -54 -17z"/>
<path d="M2413 1103 c-21 -8 -15 -22 7 -16 11 3 20 9 20 14 0 10 -8 10 -27 2z"/>
<path d="M2341 1021 c-18 -32 -13 -43 12 -27 12 8 27 15 32 16 20 0 10 25 -12
28 -14 2 -26 -4 -32 -17z"/>
<path d="M2430 972 c0 -6 9 -12 20 -15 11 -3 20 -3 20 -1 0 2 -9 8 -20 14 -11
6 -20 7 -20 2z"/>
<path d="M903 955 c-3 -9 -3 -18 -1 -21 3 -3 8 4 11 16 6 23 -1 27 -10 5z"/>
<path d="M957 933 c-4 -3 -7 -13 -7 -21 0 -12 3 -12 15 -2 8 7 15 16 15 21 0
11 -14 12 -23 2z"/>
<path d="M2250 895 c-7 -8 -8 -15 -2 -15 5 0 15 7 22 15 7 8 8 15 2 15 -5 0
-15 -7 -22 -15z"/>
<path d="M945 880 c-3 -5 -1 -10 4 -10 6 0 11 5 11 10 0 6 -2 10 -4 10 -3 0
-8 -4 -11 -10z"/>
<path d="M928 843 c6 -2 18 -2 25 0 6 3 1 5 -13 5 -14 0 -19 -2 -12 -5z"/>
<path d="M2131 829 c-13 -5 -41 -10 -62 -11 -32 -1 -36 -3 -22 -13 14 -11 13
-13 -7 -18 -20 -5 -21 -8 -10 -21 9 -12 9 -16 1 -16 -28 0 -50 -140 -24 -159
4 -3 8 -13 8 -21 0 -8 11 -20 25 -27 22 -11 23 -13 5 -14 l-20 0 20 -9 c26
-11 58 -12 51 -2 -3 5 17 8 45 8 30 -1 48 2 45 9 -2 5 2 16 10 22 9 9 14 9 16
1 2 -6 11 -9 18 -6 11 3 5 13 -20 36 -19 18 -31 32 -26 32 5 0 2 8 -5 17 -12
14 -11 14 13 -1 15 -10 26 -22 23 -26 -3 -5 -1 -11 5 -15 5 -3 10 -2 10 3 0 6
9 8 20 5 11 -3 20 0 20 6 0 6 -8 11 -17 11 -13 0 -14 3 -5 12 8 8 16 6 29 -11
l19 -23 -1 38 c-1 24 5 44 17 56 32 32 6 100 -46 122 -50 21 -84 30 -66 17 8
-6 10 -11 4 -11 -6 0 -14 3 -18 7 -10 11 -29 11 -55 2z m44 -229 c3 -6 -1 -7
-9 -4 -18 7 -21 14 -7 14 6 0 13 -4 16 -10z"/>
<path d="M2434 787 c-43 -46 -64 -82 -64 -112 0 -49 105 -119 139 -93 47 37
74 66 87 97 15 35 13 43 -20 79 -20 22 -20 23 -1 17 16 -6 17 -5 5 4 -8 6 -28
11 -43 11 -15 0 -38 7 -50 15 -22 14 -25 13 -53 -18z"/>
<path d="M3028 658 c-13 -9 -15 -17 -8 -28 12 -19 34 0 28 24 -2 14 -6 15 -20
4z"/>
<path d="M421 624 c-70 -59 -13 -178 69 -144 19 8 29 18 26 26 -3 8 -1 14 4
14 12 0 23 55 15 80 -6 19 -52 50 -74 50 -5 0 -23 -12 -40 -26z"/>
<path d="M2329 618 c-20 -40 -82 -97 -116 -109 l-33 -10 23 -32 c12 -18 26
-35 30 -38 5 -3 9 -10 8 -15 0 -13 37 -74 46 -75 35 -6 53 -5 53 2 0 5 4 9 10
9 12 0 69 39 102 70 14 14 29 39 33 56 5 27 2 35 -22 52 -22 15 -33 18 -47 10
-16 -9 -17 -8 -6 11 6 12 7 20 3 19 -19 -5 -52 14 -46 27 3 8 -2 18 -11 21 -9
3 -13 10 -10 15 3 5 3 9 0 9 -3 0 -10 -10 -17 -22z"/>
<path d="M840 560 c-25 -22 -53 -46 -62 -55 -10 -8 -18 -23 -18 -32 1 -25 48
-76 64 -70 8 3 13 -1 12 -9 -1 -10 19 -22 54 -35 64 -22 74 -24 40 -4 -29 17
-22 19 14 5 31 -11 31 -10 6 37 -24 45 -26 120 -5 150 14 20 13 23 -7 37 -33
24 -48 20 -98 -24z"/>
<path d="M1042 593 c-16 -3 -22 -9 -18 -20 4 -10 2 -13 -7 -10 -16 6 -40 -11
-55 -40 -11 -19 -8 -26 23 -58 20 -19 46 -35 58 -36 21 -1 20 -1 -3 -8 l-25
-7 23 -8 c12 -4 22 -12 22 -17 0 -5 9 -9 20 -9 11 0 23 -7 26 -15 4 -8 10 -15
14 -15 13 0 5 31 -11 41 -10 7 -8 8 8 6 12 -2 26 -7 30 -11 15 -14 8 -41 -12
-48 -14 -4 -7 -6 20 -7 30 -1 43 4 53 19 7 11 18 20 26 20 18 0 24 17 19 55
-2 17 -4 47 -6 67 -3 44 -24 69 -60 71 -14 1 -23 5 -21 8 2 3 -8 11 -22 18
-25 11 -58 12 -102 4z m8 -47 c0 -3 -4 -8 -10 -11 -5 -3 -10 -1 -10 4 0 6 5
11 10 11 6 0 10 -2 10 -4z m10 -86 c-20 -13 -33 -13 -25 0 3 6 14 10 23 10 15
0 15 -2 2 -10z m35 -50 c-3 -5 -10 -10 -16 -10 -5 0 -9 5 -9 10 0 6 7 10 16
10 8 0 12 -4 9 -10z"/>
<path d="M3037 585 c-4 -8 -2 -17 3 -20 6 -4 10 3 10 14 0 25 -6 27 -13 6z"/>
<path d="M606 575 c-3 -9 0 -15 9 -15 8 0 15 7 15 15 0 8 -4 15 -9 15 -5 0
-11 -7 -15 -15z"/>
<path d="M2248 583 c7 -3 16 -2 19 1 4 3 -2 6 -13 5 -11 0 -14 -3 -6 -6z"/>
<path d="M1855 570 c-3 -6 1 -7 9 -4 18 7 21 14 7 14 -6 0 -13 -4 -16 -10z"/>
<path d="M2905 557 c-13 -19 -13 -23 0 -36 13 -13 17 -13 34 3 11 10 17 24 15
31 -9 24 -33 25 -49 2z"/>
<path d="M563 555 c0 -8 4 -12 9 -9 4 3 8 9 8 15 0 5 -4 9 -8 9 -5 0 -9 -7 -9
-15z"/>
<path d="M729 521 c-52 -43 -156 -97 -222 -116 -37 -11 -97 -17 -162 -17
l-104 -1 -10 -29 c-5 -15 -16 -28 -23 -28 -10 0 -10 2 -1 8 6 4 14 19 18 34 6
25 4 27 -46 37 -29 6 -56 8 -60 4 -9 -9 38 -67 61 -76 12 -4 12 -6 -2 -6 -9
-1 -30 10 -46 24 -35 30 -42 31 -42 7 0 -32 -29 -62 -61 -62 l-29 0 0 -150 0
-150 270 0 270 0 0 24 c0 18 -8 27 -30 35 -24 8 -30 15 -29 38 2 24 2 24 6 6
6 -30 49 -42 71 -19 15 15 15 18 -9 40 -21 19 -29 22 -45 13 -17 -9 -18 -9 -5
6 16 21 40 21 65 2 27 -20 29 -19 54 14 l21 29 -25 28 c-33 39 -28 68 12 72
27 3 33 -1 44 -27 7 -19 20 -31 31 -31 27 0 32 16 14 44 -21 32 -7 60 36 75
40 14 99 -8 99 -37 0 -18 4 -19 36 -12 19 5 38 10 40 13 10 10 -141 77 -162
71 -11 -3 -25 1 -31 8 -16 19 -44 90 -33 83 5 -3 14 -21 20 -39 11 -33 33 -51
50 -41 5 3 0 24 -10 48 -17 38 -18 44 -4 65 25 38 11 44 -27 13z"/>
<path d="M1780 531 c0 -5 11 -11 24 -13 17 -4 23 -1 19 9 -6 14 -43 18 -43 4z"/>
<path d="M0 426 c0 -97 2 -105 21 -111 24 -8 48 18 49 53 0 13 11 33 25 45 14
12 22 27 17 32 -10 15 -98 85 -106 85 -3 0 -6 -47 -6 -104z"/>
<path d="M1418 521 c12 -7 62 -4 62 5 0 2 -17 4 -37 4 -24 0 -33 -3 -25 -9z"/>
<path d="M1548 513 c7 -3 16 -2 19 1 4 3 -2 6 -13 5 -11 0 -14 -3 -6 -6z"/>
<path d="M2824 505 c-23 -16 -37 -52 -24 -60 5 -3 14 4 20 16 9 16 19 20 41
17 22 -4 26 -2 17 6 -7 6 -17 17 -23 24 -8 10 -14 9 -31 -3z"/>
<path d="M1500 501 c0 -6 9 -9 19 -8 11 0 17 5 15 9 -7 11 -34 10 -34 -1z"/>
<path d="M3015 486 c-16 -15 -22 -27 -15 -31 5 -3 10 -1 10 4 0 6 9 11 20 11
13 0 20 7 20 20 0 26 -3 25 -35 -4z"/>
<path d="M2140 471 c0 -21 13 -41 26 -41 17 0 18 22 2 38 -14 14 -28 16 -28 3z"/>
<path d="M2846 444 c-9 -8 -16 -24 -16 -35 0 -18 9 -23 40 -20 17 2 35 -52 45
-135 8 -61 37 -114 63 -114 11 0 29 -9 41 -19 18 -16 20 -23 12 -40 -14 -25
-14 -28 3 -28 12 0 14 30 16 159 0 96 -3 158 -9 158 -5 0 -12 9 -16 19 -4 13
-13 18 -26 16 -11 -2 -17 0 -14 6 4 5 11 6 17 3 6 -4 9 -1 6 6 -10 31 -34 33
-77 6 -25 -16 -41 -22 -40 -14 3 17 -11 48 -21 48 -5 0 -16 -7 -24 -16z"/>
<path d="M1940 433 c-30 -7 -65 -16 -77 -18 -30 -7 -29 -23 8 -116 l31 -77 36
5 37 6 -25 -21 c-14 -12 -19 -21 -12 -22 6 0 12 -7 12 -15 0 -10 10 -15 31
-15 16 0 28 -4 25 -8 -3 -5 6 -21 18 -37 l24 -29 26 24 c14 14 26 29 26 34 0
5 7 17 16 27 23 25 11 49 -24 49 -29 0 -58 21 -45 33 12 13 -28 19 -42 7 -20
-16 -32 -5 -16 14 9 10 9 16 1 21 -8 5 -8 12 2 23 35 45 45 81 32 116 -7 18
-10 18 -84 -1z m40 -153 c0 -5 -4 -10 -10 -10 -5 0 -10 5 -10 10 0 6 5 10 10
10 6 0 10 -4 10 -10z"/>
<path d="M3020 432 c0 -10 7 -27 15 -38 13 -18 14 -17 15 19 0 26 -4 37 -15
37 -8 0 -15 -8 -15 -18z"/>
<path d="M1347 394 c-3 -4 -1 -16 4 -27 7 -12 9 -40 5 -70 -6 -45 -5 -52 20
-78 15 -16 25 -32 21 -35 -13 -13 15 -34 44 -34 16 0 29 -5 29 -10 0 -6 -11
-8 -25 -4 -26 7 -30 -1 -25 -55 1 -14 -9 -35 -26 -52 l-28 -29 62 0 c45 0 62
4 62 13 0 8 9 22 20 32 11 10 20 23 19 29 -3 27 2 46 12 46 6 0 8 -7 5 -16 -5
-14 -4 -15 9 -4 12 10 15 10 15 0 0 -9 4 -9 17 1 15 12 16 12 8 -1 -8 -13 -7
-13 10 0 10 8 16 10 12 3 -10 -16 9 -26 29 -15 13 7 11 11 -13 21 -16 6 -36
24 -45 39 -15 27 -16 42 -3 160 l7 62 -64 0 c-58 0 -103 7 -154 24 -11 3 -23
3 -27 0z m88 -224 c3 -5 2 -10 -4 -10 -5 0 -13 5 -16 10 -3 6 -2 10 4 10 5 0
13 -4 16 -10z"/>
<path d="M2130 358 c-11 -41 -11 -43 17 -65 39 -32 69 -30 80 5 13 38 -21 96
-59 100 -24 3 -28 -1 -38 -40z"/>
<path d="M1045 370 c-3 -5 2 -10 12 -10 15 0 16 -2 3 -10 -13 -8 -13 -10 2
-10 9 0 25 -3 35 -7 16 -6 16 -5 4 11 -21 25 -49 38 -56 26z"/>
<path d="M1279 353 c-6 -16 -18 -37 -28 -48 -28 -31 -23 -53 11 -51 42 3 67
50 54 101 -8 33 -24 32 -37 -2z"/>
<path d="M1245 351 c-3 -6 -10 -9 -15 -6 -5 3 -11 1 -15 -5 -3 -5 3 -10 14
-10 20 0 38 17 28 26 -3 3 -8 0 -12 -5z"/>
<path d="M748 338 c-30 -10 -40 -28 -27 -49 6 -10 9 -11 9 -1 0 7 14 21 31 31
35 21 27 33 -13 19z"/>
<path d="M2760 319 c-22 -40 -5 -73 33 -64 46 12 47 69 1 78 -17 3 -28 -1 -34
-14z"/>
<path d="M768 302 c-31 -18 -34 -32 -15 -64 29 -52 57 -60 82 -22 13 20 14 28
5 34 -8 5 -10 18 -5 39 6 28 4 31 -17 31 -13 0 -35 -8 -50 -18z"/>
<path d="M955 310 c3 -5 10 -10 16 -10 5 0 9 5 9 10 0 6 -7 10 -16 10 -8 0
-12 -4 -9 -10z"/>
<path d="M621 261 c-12 -8 -10 -16 13 -46 21 -28 31 -34 40 -25 8 8 7 14 -4
23 -9 7 -20 22 -25 34 -7 16 -14 20 -24 14z"/>
<path d="M920 260 c-8 -5 -12 -12 -9 -15 4 -3 12 1 19 10 14 17 11 19 -10 5z"/>
<path d="M1109 265 c-1 -3 -2 -11 -3 -17 0 -7 -16 -17 -33 -23 -18 -5 -33 -13
-33 -17 0 -4 -5 -8 -12 -8 -19 0 -47 -31 -41 -46 3 -8 0 -14 -7 -14 -7 0 -10
-7 -6 -16 3 -8 2 -13 -2 -10 -4 2 -17 -22 -29 -55 l-22 -59 59 0 c37 0 60 5
63 13 4 9 7 9 15 -1 6 -9 30 -12 78 -10 69 3 69 3 72 33 4 40 -36 80 -70 71
-30 -8 -39 -15 -66 -50 -12 -16 -22 -22 -22 -15 0 19 44 66 70 74 16 5 19 11
14 28 -18 52 -11 71 35 92 35 17 41 23 27 28 -20 8 -85 9 -87 2z m-52 -87 c-3
-8 -6 -5 -6 6 -1 11 2 17 5 13 3 -3 4 -12 1 -19z"/>
<path d="M2841 228 c5 -18 9 -34 9 -35 0 -12 39 1 44 13 8 20 -20 54 -45 54
-15 0 -16 -5 -8 -32z"/>
<path d="M1220 222 c0 -14 -2 -14 -9 -3 -6 9 -11 10 -15 2 -4 -6 -16 -11 -27
-11 -32 0 -23 -43 17 -84 39 -40 47 -39 69 5 9 16 22 29 29 29 7 0 19 7 26 15
10 12 9 19 -3 38 -19 29 -87 36 -87 9z"/>
<path d="M843 208 c-23 -30 -24 -38 -5 -38 11 0 27 11 36 25 16 24 15 25 -3
25 -10 0 -23 -6 -28 -12z"/>
<path d="M724 180 c-12 -11 -34 -74 -34 -95 0 -18 7 -24 30 -27 40 -6 40 -6
88 95 2 4 -4 7 -12 7 -9 0 -19 6 -22 14 -5 14 -39 18 -50 6z"/>
<path d="M2814 165 c-9 -22 23 -66 41 -59 18 7 19 27 5 55 -13 23 -38 25 -46
4z"/>
<path d="M1279 126 c-6 -13 -22 -30 -35 -37 -23 -12 -32 -29 -16 -29 5 0 7
-14 4 -30 l-4 -30 60 0 c54 0 61 2 68 23 5 12 7 25 6 30 -1 4 3 6 10 5 6 -2
13 4 15 13 4 17 -28 59 -46 59 -6 0 -11 5 -11 10 0 20 -41 9 -51 -14z m71 -76
c0 -5 -2 -10 -4 -10 -3 0 -8 5 -11 10 -3 6 -1 10 4 10 6 0 11 -4 11 -10z"/>
<path d="M850 132 c0 -5 -10 -14 -22 -20 -13 -6 -17 -11 -9 -11 11 -1 9 -7 -6
-23 -12 -13 -20 -34 -19 -48 1 -22 6 -25 43 -28 33 -2 44 1 57 20 22 31 20 74
-4 98 -21 21 -40 26 -40 12z"/>
<path d="M2953 100 c-26 -10 -29 -25 -10 -37 25 -16 67 -3 67 21 0 11 -24 29
-33 25 -1 0 -12 -4 -24 -9z"/>
<path d="M656 64 c-3 -9 -3 -21 1 -26 3 -7 1 -8 -5 -4 -7 4 -12 1 -12 -8 0 -8
-6 -17 -12 -20 -7 -3 21 -4 62 -3 57 2 75 5 75 16 0 9 -18 19 -45 25 -26 7
-44 17 -42 24 3 18 -15 15 -22 -4z"/>
<path d="M1553 51 c-11 -9 -23 -24 -26 -33 -6 -16 1 -18 47 -18 49 0 54 2 49
20 -3 10 -15 26 -27 34 -20 12 -25 12 -43 -3z"/>
<path d="M2878 46 c-33 -24 -22 -46 21 -46 47 0 59 14 35 41 -20 22 -32 23
-56 5z"/>
<path d="M1753 3 c9 -2 23 -2 30 0 6 3 -1 5 -18 5 -16 0 -22 -2 -12 -5z"/>
</g>
</svg>
